<?xml version="1.0" encoding="utf-8"?>
<!-- Generator: Adobe Illustrator 23.1.1, SVG Export Plug-In . SVG Version: 6.00 Build 0)  -->
<svg version="1.1" id="Layer_1" xmlns="http://www.w3.org/2000/svg" xmlns:xlink="http://www.w3.org/1999/xlink" x="0px" y="0px"
	 viewBox="0 0 1800 337" style="enable-background:new 0 0 1800 337;" xml:space="preserve">
<style type="text/css">
	.st0{opacity:2.300000e-02;}
</style>
<g id="NYPR" transform="translate(-163.584 -306.378)" class="st0">
	<g id="public-radio" transform="translate(163.584 306.378)">
		<g id="Group_8">
			<g id="Group_2">
				<path id="Path_8" d="M237.5,30.4c-24.1-20.2-57.9-30.7-97.9-30.7H0.1v325.1h17.4V17.4h122.1c37.1,0,66.8,9.6,86.8,26.5
					c20,16.9,31.3,41,31.4,73v0.9c-0.1,34.1-12.6,58.6-33.8,75.8c-21.3,17-52.2,26.3-88.6,26.3H84.7v105h17.4v-87.4h33.2
					c39.3,0,74.1-9.9,99.4-30.1c25.4-20.2,40.6-51,40.5-89.5v-0.9C275.2,80.6,261.7,50.5,237.5,30.4"/>
				<path id="Path_9" d="M93.6,157V92.5h32.9c14.9,0,25.7,3.3,32.3,8.5c6.6,5.2,10.2,12.2,10.3,23.6l0,0.9
					c-0.5,19.2-13.2,30.9-42.2,31.6L93.6,157z M170.6,161.6c11-8.7,17.2-21.7,17.1-36.2v-0.9c0.1-15.3-6-28.8-17.2-37.3
					c-11.2-8.6-26.3-12.4-43.9-12.4H75.1v100H127v0C144.5,174.7,159.6,170.4,170.6,161.6L170.6,161.6z"/>
			</g>
			<g id="Group_3" transform="translate(337.563)">
				<path id="Path_10" d="M282.9,184c-0.1,48.6-13.4,81.8-36,103.4c-22.6,21.6-55.8,32.2-97.6,32.2c-41.8,0-74.5-10.8-96.7-32.2
					c-22.2-21.4-35.1-54-35.2-101.1V-0.3H0.1v186.5C0,236.5,14.3,274.9,40.7,300.3c26.5,25.4,64,37,108.5,37
					c44.5,0,82.5-11.3,109.4-36.9c26.9-25.5,41.6-64.6,41.5-116.4V-0.2h-17.3V184"/>
				<path id="Path_11" d="M149.9,249.8h0.3c17.9,0.1,34.1-5.5,45.4-17.7s17.1-30,17.1-52.3V-0.1h-16.8v179.8
					c0,19.5-4.9,32.5-12.5,40.6c-7.6,8.1-18.5,12.4-33.2,12.4c-14.7,0-25.5-4.4-33.2-12.9c-7.6-8.4-12.6-22-12.6-42.3V-0.3H87.6
					v177.8c0,23,5.7,41.2,17,53.8C115.8,243.9,132,249.8,149.9,249.8"/>
			</g>
			<g id="Group_4" transform="translate(737.637)">
				<path id="Path_12" d="M17.7,205h56.6c13.3,0,22,2.6,26.7,6c4.6,3.5,6.3,6.9,6.5,13.1v0.9c-0.2,6.6-2.2,10.2-6.9,13.7
					c-4.8,3.4-13.4,5.9-25.3,5.9H17.7V205z M0.1,262.3h75.1c14.1-0.1,26.1-2.7,35.3-9c9.4-6.3,14.9-17,14.6-28.3v-0.9
					c0.3-11-5-21.3-13.9-27.6c-9.2-6.4-21.4-9.2-36.9-9.2H0.1V262.3z"/>
				<path id="Path_13" d="M17.8,131.4V93.1h47c11.8,0,19.8,2.4,24.1,5.6c4.2,3.3,5.9,6.5,6.1,12.8v0.9c-0.2,7-2,10.1-6.5,13.4
					c-4.7,3.2-13.3,5.5-25.4,5.5L17.8,131.4z M98,141.3c9.3-6,14.9-16.9,14.7-28.8v-0.9c0.2-11.2-4.8-21.7-13.7-27.9
					c-8.8-6.3-20.3-8.9-34.2-8.9H0.1v75H63C77,149.7,88.8,147.4,98,141.3L98,141.3z"/>
				<path id="Path_14" d="M164.5,153.2c38.5-27.8,34.4-67.6,34.4-67.6c0-70.6-71-87-112.1-85.8H0.1v17.1h86.8
					c85.2,0,94.5,49.7,94.6,68.7c0,0,3,53.3-54.3,68.2c0,0,67.7,17.1,67.7,73.5c0,0,10.1,80.1-107.1,80.1H0.1v17.4h87.7
					c37.8,0,68.7-7.9,90.6-24.2c32.5-24.3,34.5-58.9,34.3-69.9c-0.1-2.2-0.1-4.2-0.1-5.5C212.4,215.6,209.3,176.2,164.5,153.2"/>
			</g>
			<g id="Group_5" transform="translate(1025.19)">
				<path id="Path_15" d="M16.8-0.3H0.1v325.1h225v-17.5H16.8V-0.3"/>
				<path id="Path_16" d="M92.5-0.3H75.1v250h150v-17.5l-132.7,0L92.5-0.3"/>
			</g>
			<g id="Group_6" transform="translate(1312.744)">
				<path id="Path_18" d="M0.1,324.8h17.4V-0.3H0.1V324.8z"/>
				<path id="Path_96" d="M86.8,324.8h17.4V-0.3H86.8V324.8z"/>
			</g>
			<g id="Group_7" transform="translate(1487.776 0)">
				<path id="Path_19" d="M235.5,201.4l-5.1,6.3c-18,21.7-33.2,33.9-62,34.2c-37.3-0.1-63.6-30.9-63.9-73.4l0-0.9
					c0.3-41,26.7-72.5,63.9-72.6c26.1,0.2,43,11.9,59.7,32.8l13.6-11c-18-23.1-41.2-39.5-73.3-39.3c-22.6-0.1-44.1,9.7-58.8,26.8
					c-14.3,16.5-22.5,38.9-22.5,63.3v0.9c0,25,8.1,47.7,22.5,64.2c14.7,17.2,36.2,26.9,58.8,26.8c31.5,0.2,52.7-14.3,70.2-34.3
					l49.7,35.8c-27.1,34.7-61.7,58.5-122.4,58.7c-82.4-0.1-148.1-63.2-148.2-150.3l0-0.9c0.2-85,64.1-151,151.8-151.2
					c59.7,0.2,96.2,24.6,122.1,60.5l14.1-10.3c-28.1-39.7-71.5-68-136.2-67.8c-48.3,0-90.7,18.5-120.9,48.9
					C18.1,79.1,0.1,121.4,0.1,168.5v0.9c0,48.2,18.5,90.4,48.5,120.3s71.5,47.6,117.2,47.6h0.9c69.5,0,111.6-31.8,140.9-73.1
					l5.1-7.2L235.5,201.4"/>
			</g>
		</g>
	</g>
</g>
</svg>
